<svg width="47" height="33" viewBox="0 0 47 33" fill="none" xmlns="http://www.w3.org/2000/svg">
<path d="M23.1597 27.7097C16.9618 27.7097 11.9386 22.5772 11.9386 16.2456C11.9386 9.91409 16.9618 4.78157 23.1597 4.78157C28.6549 4.78157 33.2205 8.82105 34.1826 14.1546H45.6055C44.1353 6.4193 34.6582 0.449646 23.1597 0.449646C10.6414 0.449646 0.494141 7.5233 0.494141 16.2456C0.494141 24.968 10.6414 32.0416 23.1597 32.0416C34.6582 32.0416 44.1353 26.0683 45.6055 18.3367H34.1826C33.2169 23.6666 28.6549 27.7097 23.1597 27.7097Z" fill="white"/>
<path d="M23.1597 32.4876C10.418 32.4876 0.0509033 25.2019 0.0509033 16.242C0.0509033 7.28202 10.418 0 23.1597 0C34.6438 0 44.456 6.01352 46.0271 14.0011C46.0451 14.0486 46.0523 14.0998 46.0523 14.1546C46.0523 14.4032 45.8433 14.597 45.6054 14.6043H34.179C33.9664 14.6043 33.7826 14.4507 33.743 14.235C32.7989 9.01845 28.345 5.23121 23.1525 5.23121C17.2104 5.23121 12.3746 10.1736 12.3746 16.2456C12.3746 22.3176 17.2104 27.2601 23.1525 27.2601C28.345 27.2601 32.7989 23.4728 33.743 18.2562C33.7826 18.0442 33.9628 17.887 34.179 17.887H45.6018C45.7352 17.887 45.8577 17.9455 45.9442 18.0515C46.027 18.1539 46.0631 18.2891 46.0379 18.4207C44.51 26.4412 34.6763 32.4876 23.1561 32.4876" fill="#0077FF"/>
<mask id="mask0_376_3388" style="mask-type:alpha" maskUnits="userSpaceOnUse" x="11" y="4" width="24" height="25">
<path d="M11.4053 16.2676C11.4053 22.8331 16.6519 28.1521 23.12 28.1521C29.5882 28.1521 34.8348 22.8295 34.8348 16.2676C34.8348 9.70572 29.5882 4.38312 23.12 4.38312C16.6519 4.38312 11.4053 9.70207 11.4053 16.2676Z" fill="white"/>
</mask>
<g mask="url(#mask0_376_3388)">
</g>
<mask id="mask1_376_3388" style="mask-type:alpha" maskUnits="userSpaceOnUse" x="12" y="12" width="1" height="1">
<path d="M12.0611 12.9154C12.0611 12.9154 12.0539 12.9446 12.0575 12.9483C12.0575 12.9483 12.0683 12.9409 12.0719 12.9227C12.0792 12.908 12.0792 12.8934 12.0755 12.8898C12.0719 12.8898 12.0647 12.9007 12.0611 12.9117" fill="white"/>
</mask>
<g mask="url(#mask1_376_3388)">
<path d="M12.0792 12.8898H12.054V12.9483H12.0792V12.8898Z" fill="url(#paint0_radial_376_3388)"/>
</g>
<mask id="mask2_376_3388" style="mask-type:alpha" maskUnits="userSpaceOnUse" x="13" y="6" width="20" height="21">
<path d="M13.5999 16.337C13.5999 21.7145 17.8951 26.072 23.1922 26.072C28.4892 26.072 32.7881 21.7145 32.7881 16.337C32.7881 10.9596 28.4928 6.60208 23.1922 6.60208C17.8915 6.60208 13.5999 10.9596 13.5999 16.337Z" fill="white"/>
</mask>
<g mask="url(#mask2_376_3388)">
<path d="M23.2065 5.64435C28.9395 5.65532 33.7789 10.3784 33.7285 16.4358C33.6817 22.2921 28.9503 27.1029 23.0443 27.0298C17.3257 26.9604 12.5656 22.1971 12.652 16.1689C12.7349 10.3565 17.4194 5.64435 23.2029 5.64435M29.617 9.01119C25.6424 5.4835 20.3814 6.13055 17.5815 8.37876C17.7401 8.4007 17.9311 8.37876 18.0608 8.45919C18.259 8.57982 18.5581 8.49574 18.6806 8.76992C18.6878 8.78454 18.7346 8.78088 18.7671 8.78088C18.9364 8.79185 19.1022 8.79916 19.286 8.81013C19.1995 8.4007 18.8824 8.6639 18.7022 8.55423C18.7923 8.30931 18.7671 8.27275 18.4968 8.26909C18.4283 8.26909 18.3599 8.26178 18.2374 8.25447C18.4319 8.1119 18.5725 7.99492 18.731 7.89622C18.904 7.79021 19.3184 7.85966 19.4157 7.99858C19.6211 8.29103 19.9057 8.32393 20.1652 8.07535C20.2661 7.97664 20.3309 7.99127 20.3994 8.079C20.2337 8.4007 19.9634 8.47747 19.6355 8.43725C19.6463 8.57251 19.6535 8.67487 19.6607 8.78819C19.8733 8.77723 20.14 8.83572 20.2228 8.73702C20.3814 8.55058 20.5688 8.61638 20.7489 8.5652C20.7561 8.48843 20.7598 8.41897 20.767 8.3349C20.6949 8.31662 20.6336 8.30199 20.5724 8.28737C20.6372 8.0132 20.8823 7.95105 21.3904 8.07535C21.3255 8.24716 20.9976 8.30565 21.1525 8.55789C21.2066 8.64562 21.3795 8.65294 21.5165 8.70777C21.5165 8.55789 21.5093 8.47746 21.5165 8.39339C21.5237 8.32758 21.5345 8.23254 21.5777 8.19964C21.8696 7.98395 22.2191 7.93643 22.5507 8.0132C22.8389 8.079 23.102 8.25447 23.3975 8.38973C23.3146 8.63466 23.3903 8.78454 23.7362 8.79916C23.6029 8.92711 23.52 9.06237 23.4479 9.05871C23.1993 9.04409 23.0299 9.10258 23.0083 9.39137C22.6984 9.31826 22.4137 9.2488 22.0858 9.16838C22.3489 9.0185 22.5651 8.89786 22.7849 8.77357C22.5615 8.5323 22.0426 8.48478 21.8264 8.65659C21.6822 8.76626 21.5237 8.86131 21.3435 8.97829C21.3543 8.99657 21.3867 9.06237 21.4192 9.12086C21.2714 9.20128 21.1273 9.27805 20.9651 9.36578C20.9435 9.23053 20.9291 9.15741 20.9147 9.06968C20.857 9.08064 20.803 9.07699 20.7598 9.09527C20.4427 9.25246 20.1256 9.40965 19.8121 9.57781C19.6031 9.69114 19.585 9.95069 19.7868 10.0896C19.9057 10.17 20.0535 10.2066 20.194 10.2504C20.2697 10.276 20.3526 10.276 20.4463 10.2907V10.8171C20.6264 10.8573 20.6985 10.7586 20.7634 10.6233C20.8174 10.5173 20.8859 10.3857 20.9796 10.3455C21.3831 10.1773 21.3867 10.1883 21.3904 9.74231C21.3904 9.69845 21.3723 9.62899 21.394 9.61071C21.5057 9.51201 21.621 9.35482 21.7435 9.34751C21.9417 9.33654 22.1435 9.42793 22.3525 9.47545C22.3381 9.63265 22.3272 9.77522 22.3128 9.98359C22.5723 9.87392 22.7813 9.78618 23.0263 9.68382C23.0263 9.84102 23.0119 9.97262 23.0335 10.0969C23.0479 10.181 23.0984 10.2943 23.1632 10.3236C23.3975 10.4259 23.4371 10.5941 23.3686 10.8171C23.2569 10.8609 23.1452 10.9085 22.9578 10.9816C23.1236 11.073 23.2209 11.1388 23.3326 11.1826C23.4875 11.2448 23.4984 11.3435 23.4407 11.508C23.2858 11.4605 23.138 11.4239 22.9939 11.3764C22.7633 11.3033 22.7597 11.274 22.9074 11.0657C22.9362 11.0254 22.9182 10.9487 22.9218 10.8865C22.8642 10.9012 22.7921 10.8938 22.7561 10.9304C22.6227 11.051 22.3849 11.0364 22.2372 10.9194C22.1651 10.8646 22.0462 10.8463 21.9525 10.85C21.9093 10.85 21.8444 10.9414 21.8336 10.9999C21.8264 11.0364 21.8876 11.1022 21.9345 11.1315C21.9921 11.1644 22.0606 11.1717 22.1399 11.1973C22.0822 11.2667 22.039 11.3179 21.9885 11.38C21.8516 11.2119 21.7363 11.2521 21.6066 11.391C21.448 11.5592 21.2931 11.7566 21.0985 11.8589C20.7309 12.0454 20.4859 12.3524 20.2084 12.6339C20.1796 12.6632 20.1436 12.7107 20.1436 12.7472C20.1652 12.9556 20.0211 13.036 19.8805 13.1238C19.7688 13.1969 19.6535 13.2663 19.5454 13.3468C19.3292 13.5076 19.1454 13.6831 19.2319 14.0011C19.2535 14.0742 19.2319 14.1583 19.2319 14.2607C19.0842 14.1949 18.9652 14.14 18.8463 14.0889C18.8391 13.9682 18.8355 13.8586 18.8283 13.7343C18.4788 13.7343 18.1473 13.7343 17.8158 13.7343C17.7581 13.7343 17.6968 13.7343 17.6428 13.7562C17.1779 13.9134 16.9077 14.2424 16.7852 14.7249C16.7275 14.9479 16.7996 15.16 16.9401 15.244C17.0843 15.3281 17.3113 15.3903 17.5059 15.244C17.6968 15.0978 17.9058 14.9735 18.1004 14.8419C18.2914 15.1088 18.0103 15.2696 17.9923 15.4999C18.1653 15.5328 18.3383 15.5657 18.522 15.6023C18.54 15.8034 18.5761 16.0008 18.5653 16.1909C18.5545 16.4102 18.6229 16.487 18.8427 16.5381C19.2211 16.6295 19.5022 16.582 19.7003 16.2164C19.74 16.147 19.8445 16.0483 19.8949 16.0593C20.1256 16.1177 20.403 16.0593 20.5652 16.3225C20.6949 16.5272 21.1669 16.4943 21.2859 16.2896C21.5561 16.3225 21.6606 16.5491 21.7651 16.7465C21.8588 16.9256 21.9741 16.9841 22.1687 16.9732C22.529 16.9585 22.6191 17.028 22.7308 17.368C22.7633 17.4667 22.7669 17.5763 22.7633 17.6787C22.7561 17.814 22.8137 17.8724 22.929 17.9309C23.3146 18.1247 23.7218 18.1503 24.1434 18.132C24.2118 18.132 24.3163 18.1612 24.3452 18.2124C24.4713 18.4427 24.619 18.6401 24.9794 18.6657C24.8749 18.8777 24.8172 19.0642 24.7055 19.2068C24.5289 19.4297 24.3956 19.6491 24.4064 19.9562C24.4136 20.1792 24.3668 20.4058 24.3308 20.6288C24.3235 20.6873 24.2803 20.7458 24.2407 20.7933C24.0605 21.009 23.8227 21.0455 23.5596 21.0236C23.3794 21.009 23.1921 21.2429 23.2281 21.4257C23.2461 21.5281 23.275 21.6304 23.3038 21.7291C23.347 21.8754 23.3362 21.996 23.2281 22.1166C23.0587 22.3067 22.8678 22.4968 22.7669 22.7235C22.6191 23.0525 22.3741 23.217 22.0678 23.3303C21.9525 23.3742 21.8228 23.3851 21.7039 23.4217C21.6642 23.4327 21.6102 23.4765 21.6066 23.5094C21.6066 23.546 21.6462 23.5972 21.6822 23.6228C21.7219 23.652 21.7759 23.6593 21.8876 23.7032C21.7831 23.8458 21.693 23.97 21.5669 24.1382C21.7111 24.2077 21.8552 24.2735 22.0029 24.3466C22.0029 24.3685 22.0174 24.4233 22.0029 24.4562C21.83 24.7816 21.9453 25.0046 22.2227 25.1947C22.2768 25.2312 22.2768 25.3446 22.3056 25.4433C21.9381 25.4689 21.657 25.4469 21.3976 25.1947C21.1741 24.9753 21.0156 24.7268 20.8534 24.4672C20.7093 24.2369 20.6625 24.0103 20.7021 23.7434C20.7273 23.5935 20.7309 23.3778 20.6444 23.2791C20.4138 23.0123 20.3814 22.7454 20.4823 22.431C20.5363 22.2665 20.5435 22.1093 20.3382 22.0618C20.3309 22.0362 20.3273 22.0289 20.3273 22.0216C20.3273 21.539 20.3273 21.0565 20.3237 20.574C20.3237 20.4972 20.3057 20.3875 20.2589 20.3546C20.0355 20.2011 19.7976 20.0695 19.5634 19.9306C19.5166 19.9013 19.4409 19.8684 19.4373 19.8319C19.4157 19.5248 19.2031 19.3274 19.0229 19.13C18.7562 18.8448 18.6373 18.5561 18.713 18.1466C18.7635 17.8761 18.8067 17.6604 19.0733 17.5434C19.4013 17.3972 19.1959 17.123 19.1923 16.9074C19.1923 16.6917 18.9905 16.7831 18.8752 16.7794C18.5905 16.7684 18.3419 16.7136 18.1797 16.4394C17.9923 16.1214 17.7004 15.9642 17.3401 15.935C17.2933 15.9313 17.2464 15.9057 17.2068 15.8911C17.2032 15.8034 17.196 15.7302 17.1924 15.6498C17.0879 15.6425 16.9185 15.6096 16.9113 15.6279C16.8536 15.8107 16.7419 15.6937 16.6627 15.6827C16.5257 15.6608 16.3924 15.606 16.2519 15.5877C15.9276 15.5475 15.8843 15.2367 15.7258 15.0357C15.7113 15.0174 15.7186 14.9699 15.733 14.9516C15.8915 14.7725 15.7654 14.6372 15.6681 14.4983C15.4483 14.1949 15.2213 13.8988 15.2249 13.493C15.2249 13.4455 15.0988 13.398 15.0195 13.3431C14.9799 13.7745 15.1168 14.0816 15.3186 14.3703C15.3834 14.4617 15.3978 14.5897 15.4339 14.703C15.4087 14.7286 15.387 14.7505 15.3618 14.7761C15.2501 14.7249 15.0916 14.7067 15.0375 14.6189C14.8501 14.3192 14.6195 14.0267 14.706 13.6246C14.7204 13.5551 14.7204 13.4674 14.6952 13.4016C14.67 13.3285 14.6231 13.2261 14.5655 13.2079C14.3312 13.1311 14.2592 12.9812 14.2988 12.7509C14.306 12.7034 14.2988 12.6559 14.2988 12.6083C14.2772 12.6083 14.2556 12.6083 14.2339 12.6083C13.1169 15.5511 13.2034 18.461 14.7925 21.1954C16.85 24.7341 19.9886 26.3718 24.0389 26.1342C25.3397 26.0574 26.5685 25.6516 27.718 25.0302C28.8639 24.4087 29.8512 23.5899 30.698 22.5443C30.5647 22.537 30.4782 22.5334 30.3737 22.5261C30.3809 22.4237 30.3881 22.336 30.3881 22.2482C30.3881 22.0691 30.4242 21.8863 30.2764 21.7401C30.053 21.5208 29.9737 21.2503 30.017 20.9395C30.0458 20.7275 30.0098 20.5411 29.8224 20.4021C29.7719 20.3656 29.7503 20.2779 29.7323 20.2121C29.6638 19.905 29.9053 19.7003 29.9881 19.4444C30.017 19.3603 30.0242 19.2397 29.9881 19.1629C29.826 18.8412 29.635 18.5378 29.4692 18.2197C29.4224 18.1283 29.4116 18.0114 29.4116 17.9053C29.4188 17.6897 29.4476 17.4776 29.4656 17.2546C29.2927 17.24 29.1449 17.2327 29.0008 17.2071C28.9251 17.1925 28.8422 17.1633 28.7846 17.1121C28.5504 16.9074 28.3342 16.9 28.0783 17.0828C28.0171 17.1267 27.9306 17.1413 27.8549 17.145C27.6711 17.1596 27.4729 17.123 27.3036 17.1742C27.0117 17.262 26.9036 17.262 26.709 17.0426C26.5901 16.9074 26.4928 16.7465 26.3559 16.6368C25.9811 16.3298 25.8838 15.935 25.9451 15.478C25.9523 15.4268 25.9523 15.372 25.9775 15.3318C26.0424 15.2221 26.1144 15.1161 26.1829 15.0101C26.1829 14.9845 26.1757 14.9626 26.1757 14.9406C25.9235 15.0137 25.8874 14.8529 25.891 14.7103C25.891 14.6336 25.9739 14.5422 26.0424 14.4873C26.2586 14.3155 26.4748 14.1437 26.709 13.9938C26.8784 13.8841 26.9541 13.7562 26.9288 13.5515C26.918 13.4564 26.9108 13.2992 26.954 13.2737C27.163 13.164 27.3324 12.9593 27.6099 12.9885C27.79 13.0105 28.0063 13.0397 28.1504 12.9593C28.5828 12.7143 29.044 12.8204 29.5089 12.7363C29.5089 12.8679 29.5197 12.9666 29.5089 13.0616C29.4801 13.2517 29.5629 13.3139 29.7395 13.3614C30.0098 13.4272 30.2656 13.5442 30.5323 13.6319C30.5827 13.6502 30.6404 13.6319 30.7124 13.6319V13.3541C30.9899 13.27 31.2313 13.2554 31.4475 13.4747C31.7538 13.7781 32.125 13.6136 32.5069 13.6392C32.4313 13.4016 32.37 13.2115 32.316 13.0214C32.2691 12.8606 32.1898 12.7582 32.0061 12.8021C31.7682 12.8569 31.5953 12.7363 31.498 12.5389C31.4367 12.4146 31.4439 12.2537 31.4187 12.1112C31.0403 12.1587 31.1412 12.5206 30.9971 12.7655C30.8746 12.6047 30.6764 12.4658 30.6728 12.3159C30.662 12.0125 30.4818 11.8735 30.3052 11.6944C30.1323 11.519 29.9557 11.508 29.7575 11.5445C29.7143 12.0381 30.2043 12.0307 30.3737 12.2355C30.3521 12.4073 30.3665 12.5389 30.316 12.6412C30.2152 12.8423 29.8836 12.7655 29.8224 12.5572C29.9413 12.5316 30.0602 12.506 30.226 12.4694C29.9017 12.1733 29.5269 12.0673 29.3611 11.7383C29.2386 11.8041 29.0981 11.9503 28.9936 11.9284C28.7522 11.8772 28.6585 12.0052 28.554 12.1623C28.4747 12.2793 28.3486 12.3817 28.3089 12.5096C28.2225 12.7984 28.0171 12.8094 27.7864 12.7948C27.7432 12.7948 27.6964 12.7948 27.6531 12.7948C27.2027 12.7948 26.9685 12.4365 27.1486 12.0088C27.1775 11.943 27.2675 11.8626 27.3324 11.8553C27.5991 11.837 27.8657 11.848 28.1504 11.848C28.1648 11.7675 28.1828 11.6835 28.19 11.6579C28.1071 11.5592 28.0063 11.4787 28.0207 11.4458C28.0711 11.3252 27.9666 11.0912 28.1972 11.0912C28.5071 11.0912 28.6729 10.9158 28.8242 10.6782C28.8783 10.5904 29.0044 10.5137 29.1053 10.499C29.2963 10.4698 29.4981 10.4917 29.7251 10.4917C29.7071 10.3528 29.6854 10.2066 29.6602 10.0384C29.5089 10.1006 29.3936 10.1444 29.2674 10.1956C29.2314 10.1042 29.217 9.99821 29.1593 9.92875C29.1053 9.86295 28.972 9.85564 28.9287 9.78984C28.8855 9.72038 28.8747 9.56319 28.9179 9.51932C29.0224 9.41331 29.1738 9.35482 29.2999 9.26708C29.408 9.19397 29.5125 9.10989 29.6422 9.0185M30.7413 10.1737C30.5755 9.98359 30.4242 9.81543 30.2476 9.61437C30.226 9.89463 30.1119 10.1115 29.9053 10.2651C29.9053 10.2651 29.8692 10.2833 29.8692 10.2907C29.8728 10.3382 29.88 10.4296 29.8908 10.4296C30.089 10.4442 30.2944 10.4771 30.4854 10.4405C30.5791 10.4223 30.6476 10.2724 30.7413 10.17M18.9652 11.4056H19.8301C19.7256 11.285 19.6679 11.1461 19.5778 11.1205C19.3256 11.0474 19.0625 11.1717 18.9652 11.4056ZM19.5022 11.5263C19.2031 11.5116 18.9941 11.625 18.9544 11.8077C18.9292 11.9357 18.9184 12.0673 19.1166 12.0856C19.2355 11.9101 19.3616 11.731 19.5022 11.5263ZM18.922 10.3711C18.7202 10.4113 18.5725 10.4442 18.4211 10.4734C18.4139 10.499 18.4031 10.5283 18.3959 10.5539C18.4824 10.6379 18.5653 10.7805 18.659 10.7878C18.868 10.8061 18.8571 10.5977 18.922 10.3674M18.0896 8.78088C17.9022 8.81744 17.7221 8.854 17.5275 8.89055C17.5311 8.96001 17.5347 9.02216 17.5419 9.0843C17.9527 9.10989 18.1112 9.15376 18.0932 8.78088M19.9346 11.9211C19.6391 11.932 19.5382 12.0161 19.5526 12.2318C19.8985 12.2647 19.9598 12.2172 19.9346 11.9211ZM18.122 9.38041C18.122 9.38041 18.0896 9.34385 18.0752 9.32557C17.8986 9.36944 17.7221 9.41696 17.5455 9.46449C17.5455 9.49373 17.5491 9.52298 17.5527 9.55222C17.7221 9.55222 17.8914 9.55953 18.0608 9.54491C18.086 9.54491 18.104 9.4389 18.122 9.38041ZM20.14 11.7127C20.0607 12.0381 20.2192 12.0636 20.5075 12.0015C20.5291 11.7127 20.2697 11.8224 20.14 11.7127ZM19.7184 11.8406C19.9057 11.8041 20.0715 11.7748 20.0211 11.5299H19.7184V11.8406Z" fill="#00A8FF"/>
</g>
<defs>
<radialGradient id="paint0_radial_376_3388" cx="0" cy="0" r="1" gradientUnits="userSpaceOnUse" gradientTransform="translate(37.0805 6.9059) scale(0.0216228 0.0219337)">
<stop stop-color="#F5CB00"/>
<stop offset="1" stop-color="#D87A0D"/>
</radialGradient>
</defs>
</svg>
